#N canvas 827 239 734 565 12;
#X msg 258 63 listen 3033;
#X obj 258 127 oscparse;
#X obj 258 160 route list;
#X obj 258 94 netreceive -u -b 3033;
#X obj 258 188 route analog digital timestamp clock;
#X floatatom 95 462 5 0 0 0 - - - 16;
#X obj 95 427 route A0 A1 A2 A3 A4 A5 A6, f 63;
#X floatatom 155 462 5 0 0 0 - - - 16;
#X floatatom 216 462 5 0 0 0 - - - 16;
#X floatatom 277 462 5 0 0 0 - - - 16;
#X floatatom 337 462 5 0 0 0 - - - 16;
#X floatatom 398 462 5 0 0 0 - - - 16;
#X floatatom 459 462 5 0 0 0 - - - 16;
#X floatatom 165 389 5 0 0 0 - - - 16;
#X floatatom 225 389 5 0 0 0 - - - 16;
#X floatatom 286 389 5 0 0 0 - - - 16;
#X floatatom 347 389 5 0 0 0 - - - 16;
#X floatatom 408 389 5 0 0 0 - - - 16;
#X floatatom 469 389 5 0 0 0 - - - 16;
#X floatatom 530 389 5 0 0 0 - - - 16;
#X obj 165 354 route D2 D3 D4 D5 D6 D7 D7 D8 D9 D10 D11 D13 D14, f 116;
#X floatatom 591 389 5 0 0 0 - - - 16;
#X floatatom 652 389 5 0 0 0 - - - 16;
#X floatatom 713 389 5 0 0 0 - - - 16;
#X floatatom 774 389 5 0 0 0 - - - 16;
#X floatatom 835 389 5 0 0 0 - - - 16;
#X floatatom 896 389 5 0 0 0 - - - 16;
#X obj 357 224 prepend set, f 10;
#X symbolatom 357 259 7 0 0 0 - - - 16;
#X obj 441 227 prepend set, f 12;
#X symbolatom 441 259 10 0 0 0 - - - 16;
#X obj 258 30 loadbang;
#X connect 0 0 3 0;
#X connect 1 0 2 0;
#X connect 2 0 4 0;
#X connect 3 0 1 0;
#X connect 4 0 6 0 32.................S....30++++D....d8+++yM....;
#X connect 4 1 20 0 32.................g....L2+++eH....y8+++OI....;
#X connect 4 2 27 0;
#X connect 4 3 29 0;
#X connect 6 0 5 0;
#X connect 6 1 7 0;
#X connect 6 2 8 0;
#X connect 6 3 9 0;
#X connect 6 4 10 0;
#X connect 6 5 11 0;
#X connect 6 6 12 0;
#X connect 20 0 13 0;
#X connect 20 1 14 0;
#X connect 20 2 15 0;
#X connect 20 3 16 0;
#X connect 20 4 17 0;
#X connect 20 5 18 0;
#X connect 20 6 19 0;
#X connect 20 7 21 0;
#X connect 20 8 22 0;
#X connect 20 9 23 0;
#X connect 20 10 24 0;
#X connect 20 11 25 0;
#X connect 20 12 26 0;
#X connect 27 0 28 0;
#X connect 29 0 30 0;
#X connect 31 0 0 0;
