{
    "patcher": {
        "fileversion": 1,
        "appversion": {
            "major": 9,
            "minor": 1,
            "revision": 1,
            "architecture": "x64",
            "modernui": 1
        },
        "classnamespace": "box",
        "rect": [ 148.0, 201.0, 1123.0, 446.0 ],
        "boxes": [
            {
                "box": {
                    "fontsize": 16.44132444132444,
                    "id": "obj-4",
                    "linecount": 2,
                    "maxclass": "comment",
                    "numinlets": 1,
                    "numoutlets": 0,
                    "patching_rect": [ 254.39239966869343, 48.0, 479.0, 43.0 ],
                    "text": "INSTALL Ircam's Spat5 library or change to CNMAT's OSCroute.\nBoth are available for free"
                }
            },
            {
                "box": {
                    "id": "obj-44",
                    "maxclass": "message",
                    "numinlets": 2,
                    "numoutlets": 1,
                    "outlettype": [ "" ],
                    "patching_rect": [ 830.0, 251.0, 145.0, 22.0 ],
                    "text": "00:15:04:986"
                }
            },
            {
                "box": {
                    "id": "obj-43",
                    "maxclass": "message",
                    "numinlets": 2,
                    "numoutlets": 1,
                    "outlettype": [ "" ],
                    "patching_rect": [ 752.0, 220.0, 145.0, 22.0 ],
                    "text": "00:15:04:986"
                }
            },
            {
                "box": {
                    "id": "obj-41",
                    "maxclass": "button",
                    "numinlets": 1,
                    "numoutlets": 1,
                    "outlettype": [ "bang" ],
                    "parameter_enable": 0,
                    "patching_rect": [ 59.0, 76.0, 24.0, 24.0 ]
                }
            },
            {
                "box": {
                    "format": 6,
                    "id": "obj-34",
                    "maxclass": "flonum",
                    "numinlets": 1,
                    "numoutlets": 2,
                    "outlettype": [ "", "bang" ],
                    "parameter_enable": 0,
                    "patching_rect": [ 684.0, 208.0, 49.99999952316284, 22.0 ]
                }
            },
            {
                "box": {
                    "format": 6,
                    "id": "obj-35",
                    "maxclass": "flonum",
                    "numinlets": 1,
                    "numoutlets": 2,
                    "outlettype": [ "", "bang" ],
                    "parameter_enable": 0,
                    "patching_rect": [ 652.0, 208.0, 49.99999952316284, 22.0 ]
                }
            },
            {
                "box": {
                    "format": 6,
                    "id": "obj-36",
                    "maxclass": "flonum",
                    "numinlets": 1,
                    "numoutlets": 2,
                    "outlettype": [ "", "bang" ],
                    "parameter_enable": 0,
                    "patching_rect": [ 620.0, 208.0, 49.99999952316284, 22.0 ]
                }
            },
            {
                "box": {
                    "format": 6,
                    "id": "obj-37",
                    "maxclass": "flonum",
                    "numinlets": 1,
                    "numoutlets": 2,
                    "outlettype": [ "", "bang" ],
                    "parameter_enable": 0,
                    "patching_rect": [ 588.0, 208.0, 49.99999952316284, 22.0 ]
                }
            },
            {
                "box": {
                    "format": 6,
                    "id": "obj-38",
                    "maxclass": "flonum",
                    "numinlets": 1,
                    "numoutlets": 2,
                    "outlettype": [ "", "bang" ],
                    "parameter_enable": 0,
                    "patching_rect": [ 557.0, 208.0, 49.99999952316284, 22.0 ]
                }
            },
            {
                "box": {
                    "format": 6,
                    "id": "obj-39",
                    "maxclass": "flonum",
                    "numinlets": 1,
                    "numoutlets": 2,
                    "outlettype": [ "", "bang" ],
                    "parameter_enable": 0,
                    "patching_rect": [ 526.0, 208.0, 49.99999952316284, 22.0 ]
                }
            },
            {
                "box": {
                    "id": "obj-32",
                    "maxclass": "number",
                    "numinlets": 1,
                    "numoutlets": 2,
                    "outlettype": [ "", "bang" ],
                    "parameter_enable": 0,
                    "patching_rect": [ 800.0, 192.0, 123.41771990060806, 22.0 ]
                }
            },
            {
                "box": {
                    "format": 6,
                    "id": "obj-23",
                    "maxclass": "flonum",
                    "numinlets": 1,
                    "numoutlets": 2,
                    "outlettype": [ "", "bang" ],
                    "parameter_enable": 0,
                    "patching_rect": [ 494.0, 208.0, 49.99999952316284, 22.0 ]
                }
            },
            {
                "box": {
                    "format": 6,
                    "id": "obj-24",
                    "maxclass": "flonum",
                    "numinlets": 1,
                    "numoutlets": 2,
                    "outlettype": [ "", "bang" ],
                    "parameter_enable": 0,
                    "patching_rect": [ 462.0, 208.0, 49.99999952316284, 22.0 ]
                }
            },
            {
                "box": {
                    "format": 6,
                    "id": "obj-25",
                    "maxclass": "flonum",
                    "numinlets": 1,
                    "numoutlets": 2,
                    "outlettype": [ "", "bang" ],
                    "parameter_enable": 0,
                    "patching_rect": [ 430.0, 208.0, 49.99999952316284, 22.0 ]
                }
            },
            {
                "box": {
                    "format": 6,
                    "id": "obj-26",
                    "maxclass": "flonum",
                    "numinlets": 1,
                    "numoutlets": 2,
                    "outlettype": [ "", "bang" ],
                    "parameter_enable": 0,
                    "patching_rect": [ 399.0, 208.0, 49.99999952316284, 22.0 ]
                }
            },
            {
                "box": {
                    "format": 6,
                    "id": "obj-27",
                    "maxclass": "flonum",
                    "numinlets": 1,
                    "numoutlets": 2,
                    "outlettype": [ "", "bang" ],
                    "parameter_enable": 0,
                    "patching_rect": [ 367.0, 208.0, 49.99999952316284, 22.0 ]
                }
            },
            {
                "box": {
                    "format": 6,
                    "id": "obj-28",
                    "maxclass": "flonum",
                    "numinlets": 1,
                    "numoutlets": 2,
                    "outlettype": [ "", "bang" ],
                    "parameter_enable": 0,
                    "patching_rect": [ 336.0, 208.0, 49.99999952316284, 22.0 ]
                }
            },
            {
                "box": {
                    "format": 6,
                    "id": "obj-29",
                    "maxclass": "flonum",
                    "numinlets": 1,
                    "numoutlets": 2,
                    "outlettype": [ "", "bang" ],
                    "parameter_enable": 0,
                    "patching_rect": [ 303.0, 208.0, 49.99999952316284, 22.0 ]
                }
            },
            {
                "box": {
                    "id": "obj-30",
                    "maxclass": "newobj",
                    "numinlets": 1,
                    "numoutlets": 14,
                    "outlettype": [ "", "", "", "", "", "", "", "", "", "", "", "", "", "" ],
                    "patching_rect": [ 303.0, 162.0, 430.39239966869343, 22.0 ],
                    "text": "spat5.osc.route /D2 /D3 /D4 /D5 /D6 /D7 /D7 /D8 /D9 /D10 /D11 /D13 /D14"
                }
            },
            {
                "box": {
                    "format": 6,
                    "id": "obj-19",
                    "maxclass": "flonum",
                    "numinlets": 1,
                    "numoutlets": 2,
                    "outlettype": [ "", "bang" ],
                    "parameter_enable": 0,
                    "patching_rect": [ 226.0, 362.0, 49.99999952316284, 22.0 ]
                }
            },
            {
                "box": {
                    "format": 6,
                    "id": "obj-18",
                    "maxclass": "flonum",
                    "numinlets": 1,
                    "numoutlets": 2,
                    "outlettype": [ "", "bang" ],
                    "parameter_enable": 0,
                    "patching_rect": [ 195.0, 335.0, 49.99999952316284, 22.0 ]
                }
            },
            {
                "box": {
                    "format": 6,
                    "id": "obj-17",
                    "maxclass": "flonum",
                    "numinlets": 1,
                    "numoutlets": 2,
                    "outlettype": [ "", "bang" ],
                    "parameter_enable": 0,
                    "patching_rect": [ 163.0, 309.0, 49.99999952316284, 22.0 ]
                }
            },
            {
                "box": {
                    "format": 6,
                    "id": "obj-16",
                    "maxclass": "flonum",
                    "numinlets": 1,
                    "numoutlets": 2,
                    "outlettype": [ "", "bang" ],
                    "parameter_enable": 0,
                    "patching_rect": [ 131.0, 283.0, 49.99999952316284, 22.0 ]
                }
            },
            {
                "box": {
                    "format": 6,
                    "id": "obj-15",
                    "maxclass": "flonum",
                    "numinlets": 1,
                    "numoutlets": 2,
                    "outlettype": [ "", "bang" ],
                    "parameter_enable": 0,
                    "patching_rect": [ 100.0, 256.0, 49.99999952316284, 22.0 ]
                }
            },
            {
                "box": {
                    "format": 6,
                    "id": "obj-14",
                    "maxclass": "flonum",
                    "numinlets": 1,
                    "numoutlets": 2,
                    "outlettype": [ "", "bang" ],
                    "parameter_enable": 0,
                    "patching_rect": [ 69.0, 230.0, 49.99999952316284, 22.0 ]
                }
            },
            {
                "box": {
                    "format": 6,
                    "id": "obj-13",
                    "maxclass": "flonum",
                    "numinlets": 1,
                    "numoutlets": 2,
                    "outlettype": [ "", "bang" ],
                    "parameter_enable": 0,
                    "patching_rect": [ 36.0, 208.0, 49.99999952316284, 22.0 ]
                }
            },
            {
                "box": {
                    "id": "obj-8",
                    "maxclass": "newobj",
                    "numinlets": 1,
                    "numoutlets": 8,
                    "outlettype": [ "", "", "", "", "", "", "", "" ],
                    "patching_rect": [ 36.0, 162.0, 240.0, 22.0 ],
                    "text": "spat5.osc.route /A0 /A1 /A2 /A3 /A4 /A5 /A6"
                }
            },
            {
                "box": {
                    "id": "obj-6",
                    "maxclass": "newobj",
                    "numinlets": 1,
                    "numoutlets": 4,
                    "outlettype": [ "", "", "", "" ],
                    "patching_rect": [ 800.0, 162.0, 253.0, 22.0 ],
                    "text": "spat5.osc.route /timestamp /rtimestamp /clock"
                }
            },
            {
                "box": {
                    "id": "obj-2",
                    "maxclass": "newobj",
                    "numinlets": 1,
                    "numoutlets": 3,
                    "outlettype": [ "", "", "" ],
                    "patching_rect": [ 36.0, 114.0, 553.8101193904877, 22.0 ],
                    "text": "spat5.osc.route /analog /digital"
                }
            },
            {
                "box": {
                    "id": "obj-1",
                    "maxclass": "newobj",
                    "numinlets": 1,
                    "numoutlets": 1,
                    "outlettype": [ "" ],
                    "patching_rect": [ 36.0, 48.0, 98.10126453638077, 22.0 ],
                    "text": "udpreceive 3033"
                }
            }
        ],
        "lines": [
            {
                "patchline": {
                    "destination": [ "obj-2", 0 ],
                    "order": 1,
                    "source": [ "obj-1", 0 ]
                }
            },
            {
                "patchline": {
                    "destination": [ "obj-41", 0 ],
                    "order": 0,
                    "source": [ "obj-1", 0 ]
                }
            },
            {
                "patchline": {
                    "destination": [ "obj-30", 0 ],
                    "source": [ "obj-2", 1 ]
                }
            },
            {
                "patchline": {
                    "destination": [ "obj-6", 0 ],
                    "midpoints": [ 580.3101193904877, 149.5000010728836, 809.5, 149.5000010728836 ],
                    "source": [ "obj-2", 2 ]
                }
            },
            {
                "patchline": {
                    "destination": [ "obj-8", 0 ],
                    "source": [ "obj-2", 0 ]
                }
            },
            {
                "patchline": {
                    "destination": [ "obj-23", 0 ],
                    "source": [ "obj-30", 6 ]
                }
            },
            {
                "patchline": {
                    "destination": [ "obj-24", 0 ],
                    "source": [ "obj-30", 5 ]
                }
            },
            {
                "patchline": {
                    "destination": [ "obj-25", 0 ],
                    "source": [ "obj-30", 4 ]
                }
            },
            {
                "patchline": {
                    "destination": [ "obj-26", 0 ],
                    "source": [ "obj-30", 3 ]
                }
            },
            {
                "patchline": {
                    "destination": [ "obj-27", 0 ],
                    "source": [ "obj-30", 2 ]
                }
            },
            {
                "patchline": {
                    "destination": [ "obj-28", 0 ],
                    "source": [ "obj-30", 1 ]
                }
            },
            {
                "patchline": {
                    "destination": [ "obj-29", 0 ],
                    "source": [ "obj-30", 0 ]
                }
            },
            {
                "patchline": {
                    "destination": [ "obj-34", 0 ],
                    "source": [ "obj-30", 12 ]
                }
            },
            {
                "patchline": {
                    "destination": [ "obj-35", 0 ],
                    "source": [ "obj-30", 11 ]
                }
            },
            {
                "patchline": {
                    "destination": [ "obj-36", 0 ],
                    "source": [ "obj-30", 10 ]
                }
            },
            {
                "patchline": {
                    "destination": [ "obj-37", 0 ],
                    "source": [ "obj-30", 9 ]
                }
            },
            {
                "patchline": {
                    "destination": [ "obj-38", 0 ],
                    "source": [ "obj-30", 8 ]
                }
            },
            {
                "patchline": {
                    "destination": [ "obj-39", 0 ],
                    "source": [ "obj-30", 7 ]
                }
            },
            {
                "patchline": {
                    "destination": [ "obj-32", 0 ],
                    "source": [ "obj-6", 0 ]
                }
            },
            {
                "patchline": {
                    "destination": [ "obj-43", 1 ],
                    "source": [ "obj-6", 1 ]
                }
            },
            {
                "patchline": {
                    "destination": [ "obj-44", 1 ],
                    "source": [ "obj-6", 2 ]
                }
            },
            {
                "patchline": {
                    "destination": [ "obj-13", 0 ],
                    "source": [ "obj-8", 0 ]
                }
            },
            {
                "patchline": {
                    "destination": [ "obj-14", 0 ],
                    "source": [ "obj-8", 1 ]
                }
            },
            {
                "patchline": {
                    "destination": [ "obj-15", 0 ],
                    "source": [ "obj-8", 2 ]
                }
            },
            {
                "patchline": {
                    "destination": [ "obj-16", 0 ],
                    "source": [ "obj-8", 3 ]
                }
            },
            {
                "patchline": {
                    "destination": [ "obj-17", 0 ],
                    "source": [ "obj-8", 4 ]
                }
            },
            {
                "patchline": {
                    "destination": [ "obj-18", 0 ],
                    "source": [ "obj-8", 5 ]
                }
            },
            {
                "patchline": {
                    "destination": [ "obj-19", 0 ],
                    "source": [ "obj-8", 6 ]
                }
            }
        ],
        "autosave": 0
    }
}