#N canvas 827 239 734 565 12;
#X msg 231 61 listen 3033;
#X obj 231 125 oscparse;
#X obj 231 158 route list;
#X obj 231 92 netreceive -u -b 3033;
#X floatatom 231 397 5 0 0 0 - - - 16;
#X obj 231 362 route A0 A1 A2 A3 A4 A5 A6, f 63;
#X floatatom 291 397 5 0 0 0 - - - 16;
#X floatatom 352 397 5 0 0 0 - - - 16;
#X floatatom 413 397 5 0 0 0 - - - 16;
#X floatatom 473 397 5 0 0 0 - - - 16;
#X floatatom 534 397 5 0 0 0 - - - 16;
#X floatatom 595 397 5 0 0 0 - - - 16;
#X floatatom 946 281 5 0 0 0 - - - 16;
#X floatatom 1006 281 5 0 0 0 - - - 16;
#X floatatom 1067 281 5 0 0 0 - - - 16;
#X floatatom 1128 281 5 0 0 0 - - - 16;
#X floatatom 1189 281 5 0 0 0 - - - 16;
#X floatatom 1250 281 5 0 0 0 - - - 16;
#X floatatom 1311 281 5 0 0 0 - - - 16;
#X obj 946 246 route D2 D3 D4 D5 D6 D7 D7 D8 D9 D10 D11 D13 D14, f 116;
#X floatatom 1372 281 5 0 0 0 - - - 16;
#X floatatom 1433 281 5 0 0 0 - - - 16;
#X floatatom 1494 281 5 0 0 0 - - - 16;
#X floatatom 1555 281 5 0 0 0 - - - 16;
#X floatatom 1616 281 5 0 0 0 - - - 16;
#X floatatom 1677 281 5 0 0 0 - - - 16;
#X obj 619 286 prepend set, f 11;
#X symbolatom 619 318 7 0 0 0 - - - 16;
#X obj 757 286 prepend set, f 12;
#X symbolatom 757 318 10 0 0 0 - - - 16;
#X obj 231 28 loadbang;
#X obj 231 246 route analog analog-hundred analog-one, f 42;
#X obj 619 246 route timestamp clock, f 42;
#X floatatom 323 482 5 0 0 0 - - - 16;
#X obj 323 447 route A0 A1 A2 A3 A4 A5 A6, f 63;
#X floatatom 383 482 5 0 0 0 - - - 16;
#X floatatom 444 482 5 0 0 0 - - - 16;
#X floatatom 505 482 5 0 0 0 - - - 16;
#X floatatom 565 482 5 0 0 0 - - - 16;
#X floatatom 626 482 5 0 0 0 - - - 16;
#X floatatom 687 482 5 0 0 0 - - - 16;
#X floatatom 415 561 5 0 0 0 - - - 16;
#X obj 415 526 route A0 A1 A2 A3 A4 A5 A6, f 63;
#X floatatom 475 561 5 0 0 0 - - - 16;
#X floatatom 536 561 5 0 0 0 - - - 16;
#X floatatom 597 561 5 0 0 0 - - - 16;
#X floatatom 657 561 5 0 0 0 - - - 16;
#X floatatom 718 561 5 0 0 0 - - - 16;
#X floatatom 779 561 5 0 0 0 - - - 16;
#X text 168 361 RAW out;
#X text 140 446 Coocked output after clipping/smooth/gamma = 0…1 (see Arduino code), f 25;
#X text 213 525 Coocked output after clipping/smooth/gamma = -100…100 (see Arduino code), f 27;
#X text 952 219 Digital inputs;
#X text 252 221 Analog inputs;
#X text 629 220 Timestamps;
#X connect 0 0 3 0;
#X connect 1 0 2 0;
#X connect 2 0 31 0;
#X connect 3 0 1 0;
#X connect 5 0 4 0;
#X connect 5 1 6 0;
#X connect 5 2 7 0;
#X connect 5 3 8 0;
#X connect 5 4 9 0;
#X connect 5 5 10 0;
#X connect 5 6 11 0;
#X connect 19 0 12 0;
#X connect 19 1 13 0;
#X connect 19 2 14 0;
#X connect 19 3 15 0;
#X connect 19 4 16 0;
#X connect 19 5 17 0;
#X connect 19 6 18 0;
#X connect 19 7 20 0;
#X connect 19 8 21 0;
#X connect 19 9 22 0;
#X connect 19 10 23 0;
#X connect 19 11 24 0;
#X connect 19 12 25 0;
#X connect 26 0 27 0;
#X connect 28 0 29 0;
#X connect 30 0 0 0;
#X connect 31 0 5 0;
#X connect 31 1 34 0;
#X connect 31 2 42 0;
#X connect 31 3 32 0;
#X connect 32 0 26 0;
#X connect 32 1 28 0;
#X connect 32 2 19 0;
#X connect 34 0 33 0;
#X connect 34 1 35 0;
#X connect 34 2 36 0;
#X connect 34 3 37 0;
#X connect 34 4 38 0;
#X connect 34 5 39 0;
#X connect 34 6 40 0;
#X connect 42 0 41 0;
#X connect 42 1 43 0;
#X connect 42 2 44 0;
#X connect 42 3 45 0;
#X connect 42 4 46 0;
#X connect 42 5 47 0;
#X connect 42 6 48 0;
